# Blender 4.3.2
# www.blender.org
mtllib Play.mtl
o Play
v 0.970637 0.050000 0.064871
v 0.662176 0.050000 0.064871
v 0.970637 0.050000 -0.012052
v 0.970637 -0.050000 0.064871
v 0.893715 0.050000 0.064871
v 0.739868 0.050000 0.064871
v 0.970637 -0.050000 -0.012052
v 1.047561 -0.050000 -0.012052
v 0.662176 -0.050000 0.064871
v 0.893715 -0.050000 -0.012052
v 0.739868 -0.050000 -0.012052
v 0.893715 0.050000 -0.242821
v 0.893715 -0.050000 -0.242821
v 1.047561 -0.050000 -0.242821
v 0.893715 0.050000 -0.012052
v 1.047561 0.050000 -0.012052
v 0.739868 0.050000 -0.012052
v 1.047561 0.050000 -0.242821
v 0.739868 0.050000 -0.242821
v 0.662176 0.050000 -0.012052
v 0.586022 0.050000 -0.012052
v 0.739868 -0.050000 -0.242821
v 0.586022 -0.050000 -0.242821
v 0.586022 -0.050000 -0.012052
v 0.662176 -0.050000 -0.012052
v 0.586022 0.050000 -0.242821
v 0.739868 -0.050000 0.064871
v 0.893715 -0.050000 0.064871
v 0.739868 -0.050000 0.295640
v 0.893715 -0.050000 0.295640
v 0.739868 0.050000 0.295640
v 0.893715 0.050000 0.295640
v 0.331411 0.050000 0.301585
v 0.331411 0.050000 0.147739
v 0.485258 0.050000 0.301585
v 0.331411 -0.050000 0.301585
v 0.485258 -0.050000 0.301585
v 0.331411 -0.050000 0.147739
v 0.331411 -0.050000 0.070816
v 0.485258 -0.050000 -0.083030
v 0.408334 -0.050000 -0.083030
v 0.485258 0.050000 -0.083030
v 0.408334 0.050000 -0.083030
v 0.331411 0.050000 0.070816
v 0.100643 0.050000 0.070816
v 0.331411 0.050000 -0.083030
v 0.100643 0.050000 0.147739
v 0.100643 -0.050000 0.070816
v 0.100643 -0.050000 0.147739
v 0.100643 -0.050000 -0.083030
v -0.053204 -0.050000 0.301585
v -0.053204 -0.050000 -0.083030
v -0.053204 0.050000 0.301585
v 0.100643 -0.050000 0.301585
v 0.023719 -0.050000 -0.083030
v -0.053204 0.050000 -0.083030
v 0.023719 0.050000 -0.083030
v 0.177565 0.050000 -0.159953
v 0.023719 0.050000 -0.159953
v 0.100643 0.050000 -0.159953
v 0.177565 0.050000 -0.083030
v 0.100643 0.050000 -0.083030
v 0.177565 -0.050000 -0.083030
v 0.177565 -0.050000 -0.159953
v 0.254488 -0.050000 -0.159953
v 0.100643 -0.050000 -0.159953
v 0.331411 -0.050000 -0.159953
v 0.331411 -0.050000 -0.236876
v 0.331411 0.050000 -0.159953
v 0.408334 0.050000 -0.159953
v 0.408334 -0.050000 -0.159953
v 0.254488 -0.050000 -0.083030
v 0.331411 -0.050000 -0.083030
v 0.254488 0.050000 -0.083030
v 0.254488 0.050000 -0.159953
v 0.331411 0.050000 -0.236876
v 0.100643 -0.050000 -0.236876
v 0.100643 0.050000 -0.236876
v 0.023719 -0.050000 -0.159953
v 0.100643 0.050000 0.301585
v -0.951666 0.050000 0.070816
v -0.951666 0.050000 0.147739
v -1.259357 0.050000 0.147739
v -1.028588 0.050000 0.070816
v -0.874742 0.050000 0.070816
v -0.951666 -0.050000 0.070816
v -0.874742 -0.050000 0.070816
v -0.874742 -0.050000 -0.159953
v -1.028588 -0.050000 0.070816
v -1.259357 -0.050000 0.147739
v -0.951666 -0.050000 -0.159953
v -1.028588 -0.050000 -0.159953
v -1.259357 -0.050000 0.070816
v -1.028588 0.050000 -0.159953
v -0.951666 0.050000 -0.159953
v -1.259357 0.050000 -0.159953
v -1.259357 -0.050000 -0.159953
v -1.259357 0.050000 0.070816
v -1.413203 0.050000 0.301585
v -1.413203 0.050000 -0.236876
v -0.951666 0.050000 -0.236876
v -0.951666 -0.050000 -0.236876
v -1.413203 -0.050000 -0.236876
v -1.413203 -0.050000 0.301585
v -1.259357 -0.050000 0.301585
v -1.259357 0.050000 0.301585
v -0.874742 0.050000 -0.159953
v -0.951666 -0.050000 0.147739
v -0.693204 0.050000 0.301585
v -0.693204 0.050000 -0.236876
v -0.539358 0.050000 -0.236876
v -0.539358 0.050000 0.224662
v -0.154743 0.050000 0.301585
v -0.693204 -0.050000 0.301585
v -0.154743 0.050000 0.224662
v -0.154743 -0.050000 0.301585
v -0.154743 -0.050000 0.224662
v -0.539358 -0.050000 0.224662
v -0.539358 -0.050000 -0.236876
v -0.693204 -0.050000 -0.236876
vn -0.0000 1.0000 -0.0000
vn 1.0000 -0.0000 -0.0000
vn -0.0000 -0.0000 1.0000
vn -0.0000 -1.0000 -0.0000
vn -0.0000 -0.0000 -1.0000
vn -1.0000 -0.0000 -0.0000
vt 0.333333 0.000000
vt 0.066667 0.000000
vt 0.400000 0.000000
vt 0.000000 0.000000
vt 0.062500 1.000000
vt 0.000000 1.000000
vt 0.062500 0.000000
vt 0.125000 1.000000
vt 0.133333 0.000000
vt 1.000000 1.000000
vt 1.000000 0.000000
vt 0.937500 0.000000
vt 0.800000 0.000000
vt 0.750000 1.000000
vt 0.750000 0.000000
vt 0.687500 0.000000
vt 0.733333 0.000000
vt 0.812500 1.000000
vt 0.812500 0.000000
vt 0.866667 0.000000
vt 0.933333 0.000000
vt 0.687500 1.000000
vt 0.875000 1.000000
vt 0.875000 0.000000
vt 0.937500 1.000000
vt 0.625000 0.000000
vt 0.625000 1.000000
vt 0.533333 0.000000
vt 0.666667 0.000000
vt 0.466667 0.000000
vt 0.562500 0.000000
vt 0.600000 0.000000
vt 0.500000 1.000000
vt 0.500000 0.000000
vt 0.437500 0.000000
vt 0.562500 1.000000
vt 0.437500 1.000000
vt 0.375000 0.000000
vt 0.375000 1.000000
vt 0.312500 0.000000
vt 0.312500 1.000000
vt 0.250000 0.000000
vt 0.266667 0.000000
vt 0.200000 0.000000
vt 0.250000 1.000000
vt 0.187500 0.000000
vt 0.187500 1.000000
vt 0.125000 0.000000
vt 0.652174 0.000000
vt 0.043478 0.000000
vt 0.608696 0.000000
vt 0.565217 0.000000
vt 0.695652 0.000000
vt 0.086957 0.000000
vt 0.956522 0.000000
vt 0.173913 0.000000
vt 0.913043 0.000000
vt 0.217391 0.000000
vt 0.260870 0.000000
vt 0.130435 0.000000
vt 0.869565 0.000000
vt 0.826087 0.000000
vt 0.347826 0.000000
vt 0.304348 0.000000
vt 0.782609 0.000000
vt 0.478261 0.000000
vt 0.434783 0.000000
vt 0.739130 0.000000
vt 0.521739 0.000000
vt 0.391304 0.000000
vt 0.100000 1.000000
vt 0.153846 0.000000
vt 0.076923 0.000000
vt 0.692308 0.000000
vt 0.900000 0.000000
vt 0.900000 1.000000
vt 0.615385 0.000000
vt 0.923077 0.000000
vt 0.538462 0.000000
vt 0.769231 0.000000
vt 0.846154 0.000000
vt 0.307692 0.000000
vt 0.384615 0.000000
vt 0.461538 0.000000
vt 0.600000 1.000000
vt 0.700000 1.000000
vt 0.230769 0.000000
vt 0.400000 1.000000
vt 0.300000 0.000000
vt 0.300000 1.000000
vt 0.200000 1.000000
vt 0.700000 0.000000
vt 0.800000 1.000000
vt 0.100000 0.000000
vt 0.166667 1.000000
vt 0.833333 0.000000
vt 0.833333 1.000000
vt 0.666667 1.000000
vt 0.333333 1.000000
vt 0.166667 0.000000
s 0
usemtl Material.012
f 6/1/1 1/2/1 2/3/1
s 1
f 2/3/1 1/2/1 3/4/1
f 1/5/2 7/4/2 3/6/2
f 1/5/2 4/7/2 7/4/2
f 5/8/3 4/7/3 1/5/3
s 0
f 5/9/1 1/2/1 6/1/1
s 1
f 9/3/4 7/4/4 4/2/4
f 3/10/3 7/11/3 8/12/3
s 0
f 7/4/1 10/13/1 8/11/1
s 1
f 9/3/4 10/13/4 7/4/4
f 15/14/5 10/15/5 11/16/5
f 9/3/4 11/17/4 10/13/4
f 12/18/6 13/19/6 10/15/6
f 12/18/6 10/15/6 15/14/6
f 10/13/4 13/20/4 14/21/4
f 10/13/4 14/21/4 8/11/4
s 0
f 3/4/1 16/11/1 15/13/1
s 1
f 15/13/1 16/11/1 18/21/1
f 2/3/1 3/4/1 15/13/1
f 2/3/1 15/13/1 17/17/1
f 15/14/5 11/16/5 17/22/5
f 15/13/1 18/21/1 12/20/1
f 18/23/5 13/19/5 12/18/5
f 18/23/5 14/24/5 13/19/5
f 16/25/2 14/24/2 18/23/2
f 17/22/2 22/26/2 19/27/2
f 21/28/1 17/17/1 19/29/1
f 17/22/2 11/16/2 22/26/2
f 2/3/1 17/17/1 20/30/1
s 0
f 20/30/1 17/17/1 21/28/1
s 1
f 19/27/5 22/26/5 23/31/5
f 24/28/4 23/32/4 22/29/4
f 24/28/4 22/29/4 11/17/4
f 21/33/3 24/34/3 25/35/3
s 0
f 25/30/4 24/28/4 11/17/4
s 1
f 26/36/6 23/31/6 24/34/6
f 26/36/6 24/34/6 21/33/6
f 19/27/5 23/31/5 26/36/5
f 21/28/1 19/29/1 26/32/1
f 20/37/6 25/35/6 9/38/6
f 9/3/4 25/30/4 11/17/4
f 21/33/3 25/35/3 20/37/3
f 20/37/6 9/38/6 2/39/6
f 16/25/2 8/12/2 14/24/2
f 3/10/3 8/12/3 16/25/3
f 2/39/3 9/38/3 27/40/3
s 0
f 27/1/4 9/3/4 4/2/4
s 1
f 6/41/6 27/40/6 29/42/6
f 2/39/3 27/40/3 6/41/3
s 0
f 28/9/4 27/1/4 4/2/4
s 1
f 29/43/4 27/1/4 28/9/4
f 29/43/4 28/9/4 30/44/4
f 31/45/3 29/42/3 30/46/3
f 6/41/6 29/42/6 31/45/6
f 31/43/1 32/44/1 5/9/1
f 31/43/1 5/9/1 6/1/1
f 31/45/3 30/46/3 32/47/3
f 32/47/2 28/48/2 5/8/2
f 32/47/2 30/46/2 28/48/2
f 5/8/3 28/48/3 4/7/3
f 34/5/6 36/4/6 33/6/6
f 33/4/1 35/49/1 34/50/1
f 33/10/3 37/12/3 35/25/3
f 33/10/3 36/11/3 37/12/3
f 36/4/4 38/50/4 37/49/4
f 38/50/4 39/11/4 37/49/4
f 39/11/4 40/51/4 37/49/4
f 35/25/2 37/12/2 40/24/2
f 42/23/5 40/24/5 41/19/5
f 39/11/4 41/52/4 40/51/4
f 35/25/2 40/24/2 42/23/2
f 42/23/5 41/19/5 43/18/5
f 44/11/1 42/51/1 43/52/1
f 44/11/1 35/49/1 42/51/1
f 44/11/1 43/52/1 46/53/1
f 44/23/5 48/15/5 45/14/5
f 47/54/1 44/11/1 45/55/1
f 46/10/6 39/24/6 44/23/6
f 34/50/1 35/49/1 44/11/1
f 47/54/1 34/50/1 44/11/1
f 44/23/5 39/24/5 48/15/5
f 49/54/4 48/55/4 39/11/4
f 51/56/4 48/55/4 49/54/4
f 45/14/2 48/15/2 50/26/2
f 51/56/4 50/57/4 48/55/4
f 56/41/6 52/40/6 51/42/6
f 51/56/4 52/58/4 55/59/4
f 53/45/3 51/42/3 54/46/3
f 56/41/6 51/42/6 53/45/6
f 51/56/4 49/54/4 54/60/4
f 51/56/4 55/59/4 50/57/4
f 53/56/1 57/59/1 56/58/1
f 57/39/5 52/40/5 56/41/5
f 53/56/1 62/57/1 57/59/1
f 57/59/1 61/61/1 58/62/1
f 57/59/1 58/62/1 60/63/1
f 57/39/5 55/38/5 52/40/5
f 59/37/6 55/38/6 57/39/6
f 57/59/1 60/63/1 59/64/1
s 0
f 62/57/4 61/61/4 57/59/4
s 1
f 62/27/3 63/34/3 61/33/3
f 62/27/3 50/26/3 63/34/3
f 45/14/2 50/26/2 62/27/2
f 53/56/1 45/55/1 62/57/1
f 61/33/2 63/34/2 64/38/2
s 0
f 50/57/4 55/59/4 63/61/4
s 1
f 55/59/4 64/62/4 63/61/4
f 58/39/3 64/38/3 65/42/3
s 0
f 65/65/1 64/62/1 67/66/1
s 1
f 61/33/2 64/38/2 58/39/2
s 0
f 64/62/1 66/63/1 67/66/1
s 1
f 55/59/4 66/63/4 64/62/4
f 69/22/2 67/16/2 68/26/2
f 66/63/4 68/67/4 67/66/4
f 70/14/5 67/16/5 69/22/5
f 70/14/5 71/15/5 67/16/5
f 72/68/4 67/66/4 71/69/4
f 72/68/4 65/65/4 67/66/4
f 74/8/3 72/48/3 73/4/3
s 0
f 73/53/1 72/68/1 41/52/1
s 1
f 75/45/6 65/42/6 72/48/6
f 75/45/6 72/48/6 74/8/6
f 72/68/4 71/69/4 41/52/4
f 74/68/1 69/66/1 75/65/1
f 58/39/3 65/42/3 75/45/3
s 0
f 75/65/1 69/66/1 58/62/1
f 46/53/1 43/52/1 74/68/1
s 1
f 74/68/1 43/52/1 70/69/1
f 74/8/3 73/4/3 46/6/3
f 74/68/1 70/69/1 69/66/1
f 46/10/6 73/11/6 39/24/6
f 39/11/4 73/53/4 41/52/4
f 43/18/2 71/15/2 70/14/2
f 43/18/2 41/19/2 71/15/2
f 69/22/2 68/26/2 76/27/2
f 60/63/1 69/66/1 76/67/1
s 0
f 58/62/1 69/66/1 60/63/1
s 1
f 76/27/5 68/26/5 77/31/5
f 76/27/5 77/31/5 78/36/5
f 60/63/1 76/67/1 78/70/1
f 78/36/6 66/34/6 60/33/6
f 78/36/6 77/31/6 66/34/6
f 66/63/4 77/70/4 68/67/4
f 60/33/5 66/34/5 79/35/5
f 55/59/4 79/64/4 66/63/4
f 59/37/6 79/35/6 55/38/6
f 60/33/5 79/35/5 59/37/5
f 80/47/2 54/46/2 49/48/2
f 53/45/3 54/46/3 80/47/3
f 53/56/1 80/60/1 47/54/1
f 80/47/2 49/48/2 47/8/2
f 53/56/1 47/54/1 45/55/1
f 47/8/3 49/48/3 38/7/3
f 49/54/4 39/11/4 38/50/4
f 47/8/3 38/7/3 34/5/3
f 34/5/6 38/7/6 36/4/6
f 82/71/2 86/4/2 81/6/2
f 83/72/1 82/73/1 81/4/1
f 83/72/1 81/4/1 84/11/1
s 0
f 81/4/4 85/74/4 84/11/4
s 1
f 81/10/3 87/75/3 85/76/3
f 81/10/3 86/11/3 87/75/3
f 85/76/2 87/75/2 88/13/2
f 89/11/4 88/77/4 87/74/4
s 0
f 86/4/4 89/11/4 87/74/4
s 1
f 90/72/4 89/11/4 86/4/4
f 90/72/4 93/78/4 89/11/4
f 89/11/4 91/79/4 88/77/4
f 89/11/4 92/80/4 91/79/4
f 94/10/6 92/11/6 89/15/6
f 84/14/5 89/15/5 93/34/5
f 94/10/6 89/15/6 84/14/6
f 84/11/1 95/79/1 94/80/1
s 0
f 94/80/1 95/79/1 96/81/1
s 1
f 96/45/3 92/4/3 94/6/3
f 96/45/3 97/42/3 92/4/3
f 98/33/2 97/42/2 96/45/2
f 99/82/1 98/78/1 96/81/1
f 99/82/1 96/81/1 100/83/1
f 96/81/1 101/84/1 100/83/1
f 96/81/1 95/79/1 101/84/1
f 101/85/5 102/32/5 103/34/5
f 95/86/2 102/32/2 101/85/2
f 101/85/5 103/34/5 100/33/5
f 97/81/4 103/83/4 102/84/4
f 100/33/6 103/34/6 104/3/6
f 104/82/4 103/83/4 97/81/4
f 104/82/4 90/72/4 105/87/4
f 104/82/4 93/78/4 90/72/4
f 99/88/3 104/3/3 105/89/3
f 104/82/4 97/81/4 93/78/4
f 100/33/6 104/3/6 99/88/6
f 106/90/2 105/89/2 90/44/2
f 99/88/3 105/89/3 106/90/3
f 106/90/2 90/44/2 83/91/2
f 99/82/1 106/87/1 83/72/1
f 95/86/2 91/92/2 102/32/2
f 97/81/4 102/84/4 91/79/4
f 99/82/1 83/72/1 98/78/1
f 98/33/2 93/34/2 97/42/2
f 84/14/5 93/34/5 98/33/5
f 83/72/1 84/11/1 98/78/1
s 0
f 92/80/4 97/81/4 91/79/4
s 1
f 84/11/1 107/77/1 95/79/1
f 107/93/5 91/92/5 95/86/5
f 107/93/5 88/13/5 91/92/5
f 85/76/2 88/13/2 107/93/2
f 84/11/1 85/74/1 107/77/1
f 90/72/4 86/4/4 108/73/4
f 83/91/3 90/44/3 108/94/3
f 82/71/2 108/94/2 86/4/2
f 83/91/3 108/94/3 82/71/3
f 110/95/6 114/4/6 109/6/6
f 109/4/1 111/3/1 110/44/1
f 109/4/1 112/32/1 111/3/1
f 109/4/1 115/13/1 112/32/1
f 109/10/3 116/96/3 113/97/3
f 109/4/1 113/11/1 115/13/1
f 109/10/3 114/11/3 116/96/3
f 113/97/2 116/96/2 117/29/2
f 114/4/4 117/13/4 116/11/4
f 115/98/5 117/29/5 118/34/5
f 113/97/2 117/29/2 115/98/2
f 114/4/4 118/32/4 117/13/4
f 115/98/5 118/34/5 112/33/5
f 112/33/2 118/34/2 119/1/2
f 114/4/4 119/3/4 118/32/4
f 111/99/5 119/1/5 120/100/5
f 114/4/4 120/44/4 119/3/4
f 112/33/2 119/1/2 111/99/2
f 110/95/6 120/100/6 114/4/6
f 111/99/5 120/100/5 110/95/5
